# xmcd
# Track frame offsets:
# 150
# 14415
# 28407
# 42147
# 57207
# 71582
# 86077
# 99476
# 118679
#
# Disc length: 1749 seconds
# Revision: 0
# Processed by: cddbd v1.5.1PL0 Copyright (c) Steve Scherf et al.
# Submitted via: VisiTrax 2.9.10.220 - For more info visit www.synapsa.com
#
DISCID=7606d309
DTITLE=Justin Wortham - On The Loose
DYEAR=2001
DGENRE=Country
TTITLE0=I'm On The Loose
TTITLE1=Small Town Girl
TTITLE2=Life's About Livin
TTITLE3=John Deere Letter
TTITLE4=Maybe It's You
TTITLE5=What Was I Thinking
TTITLE6=Pretty Woman
TTITLE7=Where Were We
TTITLE8=Get Down
EXTD=
EXTT0=
EXTT1=
EXTT2=
EXTT3=
EXTT4=
EXTT5=
EXTT6=
EXTT7=
EXTT8=
PLAYORDER=
